<?xml version="1.0" standalone="no"?>
<!DOCTYPE svg PUBLIC "-//W3C//DTD SVG 20010904//EN"
 "http://www.w3.org/TR/2001/REC-SVG-20010904/DTD/svg10.dtd">
<svg version="1.0" xmlns="http://www.w3.org/2000/svg"
 width="700.000000pt" height="700.000000pt" viewBox="0 0 700.000000 700.000000"
 preserveAspectRatio="xMidYMid meet">
<metadata>
Created by potrace 1.14, written by Peter Selinger 2001-2017
</metadata>
<g transform="translate(0.000000,700.000000) scale(0.100000,-0.100000)"
fill="#000000" stroke="none">
<path d="M3217 6425 c-1 -1 -47 -5 -102 -9 -55 -3 -111 -8 -125 -11 -14 -3
-41 -8 -60 -10 -19 -3 -46 -8 -60 -11 -14 -3 -36 -8 -50 -11 -231 -42 -544
-171 -774 -320 -185 -120 -415 -322 -531 -468 -22 -27 -48 -59 -58 -70 -24
-26 -145 -206 -182 -270 -94 -161 -191 -403 -240 -592 -70 -276 -87 -591 -49
-889 6 -48 5 -51 -24 -70 -48 -31 -110 -91 -136 -132 -62 -99 -74 -259 -25
-334 24 -37 101 -88 133 -88 13 0 7 -12 -23 -47 -73 -87 -112 -193 -89 -237
27 -51 71 -55 191 -16 53 17 100 30 104 28 12 -3 63 -130 57 -139 -3 -5 -14
-9 -25 -9 -36 0 -128 -51 -154 -84 -36 -47 -55 -99 -55 -150 0 -109 52 -159
222 -215 105 -35 108 -39 113 -154 6 -151 38 -222 119 -258 46 -20 157 -20
213 1 31 11 32 11 115 -72 89 -89 154 -136 264 -191 125 -63 306 -115 460
-133 33 -3 68 -8 79 -11 24 -5 362 -4 427 1 26 2 69 7 95 10 26 3 68 8 93 11
81 9 312 56 454 91 109 28 420 125 507 159 11 4 22 -10 43 -54 35 -76 112
-149 186 -175 203 -73 423 65 438 274 6 83 -13 130 -67 167 -22 15 -40 31 -41
34 0 3 26 18 57 34 98 48 342 194 473 283 689 468 988 961 863 1423 l-15 56
45 66 c59 85 81 161 74 249 -5 62 -34 139 -57 153 -19 11 -10 22 22 29 50 10
76 32 84 71 13 72 -83 213 -193 283 l-41 26 5 53 c11 105 -58 282 -145 369
-71 72 -153 105 -277 111 -55 3 -118 1 -141 -5 l-41 -9 -18 51 c-24 67 -165
274 -264 390 -245 284 -499 471 -871 638 -119 54 -398 134 -535 154 -22 3 -51
7 -65 9 -84 13 -392 28 -403 20z"/>
<path d="M3147 724 c-1 -1 -110 -5 -242 -9 -132 -4 -260 -8 -285 -10 -25 -1
-99 -6 -165 -10 -66 -4 -136 -8 -155 -10 -19 -1 -71 -6 -115 -9 -92 -8 -136
-12 -219 -22 -33 -4 -71 -8 -85 -9 -62 -7 -152 -20 -266 -40 -219 -38 -365
-93 -365 -138 0 -21 23 -44 65 -66 50 -25 208 -67 330 -86 44 -7 163 -24 206
-30 25 -3 57 -7 70 -9 13 -3 58 -7 99 -11 41 -3 93 -8 115 -11 42 -5 113 -10
260 -19 50 -3 115 -7 146 -10 337 -26 1608 -27 1909 0 25 2 95 7 155 10 61 4
126 8 145 10 19 1 73 6 120 9 47 4 99 9 115 11 32 4 81 10 180 21 33 3 62 8
65 9 3 2 33 7 65 10 33 4 63 9 66 11 3 1 28 6 55 10 27 3 52 8 55 10 3 2 21 6
40 9 50 9 176 53 204 71 49 32 38 76 -26 109 -62 33 -315 89 -489 110 -25 3
-61 7 -80 10 -33 5 -54 7 -175 20 -27 3 -79 7 -115 10 -36 3 -90 7 -120 10
-126 10 -337 21 -600 31 -171 6 -958 12 -963 8z"/>
</g>
</svg>
