<svg width="115" height="19" viewBox="0 0 115 19" fill="none" xmlns="http://www.w3.org/2000/svg">
<path d="M7.60065 18.5793C6.94627 18.5793 6.44688 18.403 6.10247 18.0504C5.75807 17.6978 5.58586 17.1941 5.58586 16.5393V9.23555L6.41244 11.477L0.316425 3.04C0.0753392 2.68741 -0.0279831 2.30963 0.00645765 1.90667C0.0408984 1.48691 0.213102 1.12592 0.523069 0.823702C0.833036 0.52148 1.27216 0.370369 1.84043 0.370369C2.25372 0.370369 2.62396 0.47111 2.95114 0.672592C3.29555 0.874073 3.62274 1.19308 3.93271 1.62963L8.0656 7.44741H7.23902L11.3719 1.62963C11.6991 1.17629 12.0177 0.857283 12.3276 0.672592C12.6548 0.47111 13.0337 0.370369 13.4642 0.370369C14.0152 0.370369 14.4458 0.513085 14.7557 0.798518C15.0657 1.06716 15.2293 1.41136 15.2465 1.83111C15.2637 2.23407 15.1173 2.65383 14.8074 3.09037L8.78885 11.477L9.5896 9.23555V16.5393C9.5896 17.8993 8.92662 18.5793 7.60065 18.5793Z" fill="white"/>
<path d="M21.1332 18.6296C19.7728 18.6296 18.5846 18.3694 17.5686 17.8489C16.5698 17.3284 15.7949 16.5812 15.2439 15.6074C14.6928 14.6336 14.4173 13.4835 14.4173 12.157C14.4173 11.1664 14.5723 10.2765 14.8822 9.48741C15.1922 8.69827 15.6399 8.02667 16.2254 7.47259C16.8281 6.90173 17.5428 6.47358 18.3694 6.18815C19.196 5.88592 20.1172 5.73481 21.1332 5.73481C22.4937 5.73481 23.6733 5.99506 24.672 6.51555C25.688 7.03605 26.4716 7.77481 27.0226 8.73185C27.5909 9.68889 27.875 10.8306 27.875 12.157C27.875 13.1644 27.7114 14.0627 27.3842 14.8519C27.0743 15.641 26.6266 16.321 26.0411 16.8919C25.4556 17.4627 24.7409 17.8993 23.8971 18.2015C23.0705 18.4869 22.1493 18.6296 21.1332 18.6296ZM21.1332 15.7837C21.7015 15.7837 22.1923 15.6494 22.6056 15.3807C23.0189 15.1121 23.3461 14.7175 23.5872 14.197C23.8282 13.6598 23.9488 12.9798 23.9488 12.157C23.9488 10.9314 23.6905 10.0331 23.1739 9.46222C22.6573 8.87457 21.977 8.58074 21.1332 8.58074C20.5822 8.58074 20.0914 8.70667 19.6609 8.95852C19.2476 9.21037 18.9204 9.60494 18.6793 10.1422C18.4555 10.6627 18.3435 11.3343 18.3435 12.157C18.3435 13.3827 18.6019 14.2978 19.1185 14.9022C19.6351 15.4899 20.3067 15.7837 21.1332 15.7837Z" fill="white"/>
<path d="M34.9233 18.6296C33.8557 18.6296 32.9688 18.4365 32.2628 18.0504C31.5568 17.6642 31.0315 17.0849 30.6871 16.3126C30.3599 15.5235 30.1963 14.5496 30.1963 13.3911V7.69926C30.1963 7.06123 30.3599 6.58272 30.6871 6.2637C31.0315 5.94469 31.5137 5.78518 32.1336 5.78518C32.7536 5.78518 33.2357 5.94469 33.5802 6.2637C33.9246 6.58272 34.0968 7.06123 34.0968 7.69926V13.4919C34.0968 14.2306 34.2518 14.7847 34.5617 15.1541C34.8717 15.5067 35.3625 15.683 36.0341 15.683C36.7745 15.683 37.3773 15.4311 37.8422 14.9274C38.3244 14.4069 38.5655 13.7269 38.5655 12.8874V7.69926C38.5655 7.06123 38.729 6.58272 39.0562 6.2637C39.4006 5.94469 39.8828 5.78518 40.5028 5.78518C41.1399 5.78518 41.6221 5.94469 41.9493 6.2637C42.2937 6.58272 42.4659 7.06123 42.4659 7.69926V16.64C42.4659 17.9328 41.8373 18.5793 40.5802 18.5793C39.9603 18.5793 39.4867 18.4114 39.1596 18.0756C38.8324 17.7398 38.6688 17.2612 38.6688 16.64V14.9526L39.0562 15.9348C38.6774 16.7911 38.1349 17.4543 37.4289 17.9244C36.7229 18.3946 35.8877 18.6296 34.9233 18.6296Z" fill="white"/>
<path d="M47.4988 18.5793C46.8444 18.5793 46.345 18.4114 46.0006 18.0756C45.6562 17.7398 45.484 17.2612 45.484 16.64V7.69926C45.484 7.07802 45.6476 6.6079 45.9748 6.28889C46.3192 5.95309 46.7928 5.78518 47.3955 5.78518C48.0154 5.78518 48.489 5.95309 48.8162 6.28889C49.1433 6.6079 49.3069 7.07802 49.3069 7.69926V9.00889H49.0486C49.2553 8.00148 49.7116 7.22074 50.4177 6.66667C51.1237 6.11259 52.0364 5.80197 53.1557 5.73481C53.5862 5.70123 53.9134 5.81037 54.1373 6.06222C54.3783 6.29728 54.5075 6.69185 54.5247 7.24592C54.5592 7.76642 54.4472 8.17778 54.1889 8.48C53.9478 8.78222 53.5345 8.96691 52.9491 9.03407L52.3549 9.08444C51.3734 9.1684 50.6415 9.44543 50.1593 9.91556C49.6944 10.3857 49.4619 11.0657 49.4619 11.9556V16.64C49.4619 17.2612 49.2897 17.7398 48.9453 18.0756C48.6181 18.4114 48.136 18.5793 47.4988 18.5793Z" fill="white"/>
<path d="M58.3246 18.5793C57.7391 18.5793 57.2914 18.4198 56.9814 18.1007C56.6715 17.7817 56.5165 17.3368 56.5165 16.7659V2.1837C56.5165 1.61284 56.6801 1.1679 57.0073 0.848887C57.3517 0.529875 57.8166 0.370369 58.4021 0.370369C58.9187 0.370369 59.3234 0.47111 59.6162 0.672592C59.9261 0.857283 60.2103 1.18469 60.4686 1.65481L66.4354 12.283H65.5572L71.5241 1.65481C71.7824 1.18469 72.0579 0.857283 72.3506 0.672592C72.6606 0.47111 73.0653 0.370369 73.5647 0.370369C74.1502 0.370369 74.5979 0.529875 74.9079 0.848887C75.2351 1.1679 75.3986 1.61284 75.3986 2.1837V16.7659C75.3986 17.3368 75.2437 17.7817 74.9337 18.1007C74.6237 18.4198 74.176 18.5793 73.5905 18.5793C73.005 18.5793 72.5487 18.4198 72.2215 18.1007C71.9115 17.7817 71.7565 17.3368 71.7565 16.7659V6.56593H72.3248L67.5203 14.9526C67.3137 15.2716 67.0898 15.5151 66.8487 15.683C66.6249 15.8341 66.3235 15.9096 65.9447 15.9096C65.5658 15.9096 65.2558 15.8257 65.0148 15.6578C64.7737 15.4899 64.5584 15.2548 64.369 14.9526L59.5128 6.54074H60.1328V16.7659C60.1328 17.3368 59.9778 17.7817 59.6678 18.1007C59.3751 18.4198 58.9273 18.5793 58.3246 18.5793Z" fill="white"/>
<path d="M85.3428 18.6296C83.8446 18.6296 82.5531 18.3694 81.4682 17.8489C80.4006 17.3116 79.574 16.5644 78.9885 15.6074C78.4202 14.6336 78.1361 13.4919 78.1361 12.1822C78.1361 10.9062 78.4116 9.78963 78.9627 8.83259C79.5137 7.85877 80.28 7.10321 81.2616 6.56593C82.2604 6.01185 83.3883 5.73481 84.6454 5.73481C85.5581 5.73481 86.3846 5.88592 87.1251 6.18815C87.8656 6.47358 88.5028 6.89333 89.0366 7.44741C89.5704 7.98469 89.9751 8.6479 90.2506 9.43704C90.5261 10.2094 90.6639 11.0741 90.6639 12.0311C90.6639 12.3501 90.5606 12.5936 90.3539 12.7615C90.1473 12.9126 89.8459 12.9881 89.4499 12.9881H81.3391V11.0237H87.8484L87.4351 11.3763C87.4351 10.6879 87.3318 10.117 87.1251 9.6637C86.9185 9.19358 86.6171 8.84099 86.2211 8.60593C85.8422 8.37086 85.3686 8.25333 84.8004 8.25333C84.1632 8.25333 83.6208 8.39605 83.173 8.68148C82.7253 8.96691 82.3809 9.37827 82.1398 9.91556C81.8987 10.4528 81.7782 11.0993 81.7782 11.8548V12.0563C81.7782 13.3323 82.0796 14.2726 82.6823 14.877C83.3022 15.4815 84.2149 15.7837 85.4203 15.7837C85.8336 15.7837 86.3072 15.7333 86.841 15.6326C87.3748 15.5319 87.8742 15.3723 88.3392 15.1541C88.7352 14.9694 89.0882 14.9106 89.3982 14.9778C89.7082 15.0281 89.9493 15.1625 90.1215 15.3807C90.2937 15.599 90.3884 15.8509 90.4056 16.1363C90.44 16.4217 90.3798 16.7072 90.2248 16.9926C90.0698 17.2612 89.8115 17.4879 89.4499 17.6726C88.8644 17.9916 88.2014 18.2267 87.4609 18.3778C86.7377 18.5457 86.0316 18.6296 85.3428 18.6296Z" fill="white"/>
<path d="M97.2204 18.6296C96.2905 18.6296 95.4553 18.4533 94.7149 18.1007C93.9744 17.7481 93.3975 17.2696 92.9842 16.6652C92.5709 16.0607 92.3643 15.3807 92.3643 14.6252C92.3643 13.7185 92.6054 13.0049 93.0875 12.4844C93.5697 11.9472 94.3532 11.5694 95.4381 11.3511C96.523 11.116 97.9609 10.9985 99.7518 10.9985H101.121V12.963H99.7777C98.8994 12.963 98.1848 13.0133 97.6337 13.1141C97.0999 13.198 96.7124 13.3491 96.4714 13.5674C96.2475 13.7857 96.1356 14.0879 96.1356 14.4741C96.1356 14.9442 96.2991 15.3304 96.6263 15.6326C96.9707 15.9348 97.4615 16.0859 98.0987 16.0859C98.5981 16.0859 99.0372 15.9768 99.416 15.7585C99.8121 15.5235 100.122 15.2128 100.346 14.8267C100.57 14.4237 100.682 13.9704 100.682 13.4667V10.5704C100.682 9.8316 100.51 9.31111 100.165 9.00889C99.8207 8.68988 99.2352 8.53037 98.4086 8.53037C97.9437 8.53037 97.4357 8.58914 96.8846 8.70667C96.3508 8.80741 95.7567 8.9837 95.1023 9.23555C94.7235 9.40345 94.3877 9.44543 94.0949 9.36148C93.8022 9.26074 93.5783 9.09284 93.4233 8.85778C93.2684 8.60593 93.1909 8.33728 93.1909 8.05185C93.1909 7.74963 93.277 7.4642 93.4492 7.19556C93.6214 6.91012 93.9055 6.70025 94.3016 6.56593C95.1109 6.24691 95.8686 6.02864 96.5747 5.91111C97.2979 5.79358 97.9609 5.73481 98.5636 5.73481C99.8896 5.73481 100.974 5.9279 101.818 6.31407C102.679 6.68346 103.325 7.26272 103.756 8.05185C104.186 8.8242 104.401 9.82321 104.401 11.0489V16.64C104.401 17.2612 104.246 17.7398 103.936 18.0756C103.626 18.4114 103.179 18.5793 102.593 18.5793C102.008 18.5793 101.551 18.4114 101.224 18.0756C100.914 17.7398 100.759 17.2612 100.759 16.64V15.7081L100.94 15.8593C100.837 16.4301 100.613 16.9254 100.268 17.3452C99.9413 17.7481 99.5194 18.0672 99.0027 18.3022C98.4861 18.5205 97.892 18.6296 97.2204 18.6296Z" fill="white"/>
<path d="M111.883 18.6296C110.35 18.6296 109.205 18.2183 108.447 17.3956C107.69 16.556 107.311 15.3136 107.311 13.6681V2.30963C107.311 1.6716 107.475 1.19309 107.802 0.874074C108.146 0.538271 108.637 0.370369 109.274 0.370369C109.894 0.370369 110.368 0.538271 110.695 0.874074C111.039 1.19309 111.211 1.6716 111.211 2.30963V13.517C111.211 14.2054 111.358 14.7175 111.65 15.0533C111.96 15.3723 112.365 15.5319 112.864 15.5319C113.002 15.5319 113.131 15.5235 113.252 15.5067C113.372 15.4899 113.502 15.4815 113.639 15.4815C113.915 15.4479 114.104 15.5319 114.208 15.7333C114.328 15.918 114.388 16.2958 114.388 16.8667C114.388 17.3704 114.285 17.7565 114.079 18.0252C113.872 18.277 113.553 18.4449 113.123 18.5289C112.951 18.5457 112.753 18.5625 112.529 18.5793C112.305 18.6128 112.09 18.6296 111.883 18.6296Z" fill="white"/>
</svg>
