<svg aria-hidden="true" style="position: absolute; width: 0; height: 0; overflow: hidden;" version="1.1" xmlns="http://www.w3.org/2000/svg" xmlns:xlink="http://www.w3.org/1999/xlink">
	<defs>
		<symbol id="icon-icon-burger" viewBox="0 0 32 32">
			<path fill="#f9a332" style="fill: var(--color1, #f9a332)" d="M27.096 14.389c0 0 2.342 3.054-3.69 7.051s-14.441 5.319-16.114 1.015c-1.673-4.304-0.111-3.030 6.318-3.767s10.71-7.422 11.744-6.693c1.034 0.729 1.741 2.393 1.741 2.393z">
			</path>
			<path fill="#bf6700" style="fill: var(--color2, #bf6700)" d="M12.485 24.56c-1.815 0-3.354-0.428-4.337-1.376 0.435-0.205 0.779-0.413 1.066-0.587 0.328-0.198 0.593-0.359 0.758-0.359 0.018 0 0.034 0.002 0.049 0.006 0.084 0.021 0.172 0.112 0.27 0.277 0.283 0.479 0.668 0.74 1.090 0.74 0.017 0 0.034-0 0.051-0.001 0.447-0.022 0.858-0.346 1.102-0.867 0.144-0.309 0.333-0.497 0.576-0.574 0.090-0.029 0.191-0.043 0.301-0.043 0.406 0 0.948 0.193 1.618 0.575 0.003 0.001 0.005 0.003 0.007 0.004 0.278 0.165 0.591 0.266 0.96 0.275 0.030 0.001 0.060 0.001 0.089 0.001 1.020 0 1.502-0.467 1.793-0.749 0.076-0.073 0.19-0.184 0.229-0.188 0 0 0.034 0.005 0.111 0.082-0.342 0.401-1.046 1.179-2.12 1.179-0.461 0-0.99-0.143-1.588-0.521-0.263-0.166-0.532-0.235-0.775-0.235-0.694 0-1.178 0.565-0.698 1.060 0.197 0.203 0.594 0.274 1.050 0.274 0.737 0 1.628-0.185 2.082-0.292 0.912-0.223 1.842-0.519 2.766-0.88 0.169 0.075 0.342 0.115 0.505 0.115 0.162 0 0.314-0.039 0.444-0.121 0.111-0.070 0.287-0.228 0.333-0.539 1.1-0.506 2.177-1.102 3.191-1.773 2.354-1.56 3.432-2.976 3.872-4.123 0.002 0.181-0.012 0.377-0.048 0.588-0.059 0.344-0.174 0.692-0.343 1.044-0.587 0.982-1.646 2.11-3.481 3.326-3.43 2.273-7.63 3.681-10.921 3.681zM20.024 20.852c-0.011-0.024-0.022-0.049-0.034-0.074-0.038-0.081-0.073-0.165-0.103-0.254 0.005 0 0.010 0 0.016 0 1.173 0 1.619-0.58 2.16-1.283 0.191-0.248 0.389-0.505 0.642-0.776 0.457-0.488 1.157-0.518 1.834-0.547 0.445-0.019 0.872-0.037 1.197-0.197-0.789 0.783-1.828-0.001-2.449 0.983-0.707 1.119-1.335 1.905-2.67 2.062-0.217 0.026-0.414 0.054-0.593 0.086zM26.279 16.823c0.003-0.060 0.003-0.124 0-0.19-0.024-0.533-0.026-0.896 0.031-1.062 0.031-0.090 0.072-0.113 0.286-0.207 0.141-0.061 0.321-0.14 0.546-0.28 0.032 0.099 0.062 0.21 0.086 0.334-0.882 0.212-0.538 0.427-0.95 1.404z">
			</path>
			<path fill="#6d184e" style="fill: var(--color3, #6d184e)" d="M25.167 12.206c-0.061 0-0.212 0.035-0.544 0.267-0.386 0.271-0.888 0.718-1.469 1.236-2.129 1.898-5.347 4.765-9.513 5.243-1.523 0.175-2.77 0.237-3.772 0.287-1.547 0.077-2.569 0.128-2.837 0.542-0.257 0.396 0.017 1.317 0.508 2.579 0.403 1.037 1.24 1.763 2.489 2.16 3.233 1.026 8.797-0.361 13.231-3.3 2.332-1.546 3.706-3.175 3.971-4.711 0.208-1.204-0.323-1.929-0.346-1.959-0.013-0.017-0.025-0.037-0.033-0.057-0.009-0.022-0.693-1.606-1.65-2.28-0-0-0.010-0.006-0.036-0.006zM12.49 25.39c-0.972 0-1.854-0.121-2.621-0.365-1.409-0.447-2.359-1.279-2.823-2.473-0.594-1.527-0.842-2.467-0.458-3.059 0.416-0.642 1.425-0.692 3.255-0.783 0.994-0.050 2.232-0.111 3.738-0.284 3.999-0.458 7.141-3.259 9.221-5.112 1.391-1.239 2.156-1.922 2.706-1.535 1.021 0.719 1.718 2.245 1.82 2.479 0.117 0.169 0.647 1.017 0.429 2.32-0.286 1.714-1.701 3.425-4.204 5.083-2.177 1.443-4.73 2.579-7.188 3.199-1.397 0.352-2.702 0.529-3.875 0.529z">
			</path>
			<path fill="#48c75a" style="fill: var(--color4, #48c75a)" d="M6.185 19.745c0 0-1.531-0.236-1.669 0.805s1.551 0.628 1.532 1.433-0.039 1.865 1.689 1.139c1.728-0.726 2.199-1.647 2.749-0.715s1.433 0.774 1.846-0.109c0.412-0.884 1.223-1.050 2.811-0.142 0.849 0.486 1.31-0.206 1.887-0.898 0.501-0.601 1.089-1.202 2.096-1.031 2.165 0.368 2.258-0.677 3.416-1.914s3.593 0.118 3.515-1.669c-0.079-1.787 0.108-1.114 1.183-1.895s1.060-2.607-1.046-2.444c-2.106 0.162-7.343 7.716-20.008 7.441z">
			</path>
			<path fill="#b6e9bd" style="fill: var(--color5, #b6e9bd)" d="M26.073 15.148c0.079-0.33 0.459-0.531 1.246-1.143 0.139-0.108 0.278-0.288 0.395-0.469-0.029 0.375-0.252 0.772-0.608 1.030-0.295 0.214-0.513 0.309-0.689 0.386-0.145 0.063-0.257 0.122-0.344 0.196z">
			</path>
			<path fill="#b6e9bd" style="fill: var(--color5, #b6e9bd)" d="M20.553 19.99c0.693-0.376 1.024-1.172 1.793-2.052 0.969-1.109 2.773-0.4 3.472-1.020-0.021 0.122-0.063 0.218-0.128 0.289-0.204 0.222-0.673 0.242-1.17 0.263-0.732 0.031-1.561 0.066-2.143 0.689-0.268 0.287-0.482 0.564-0.67 0.809-0.384 0.498-0.664 0.864-1.153 1.023z">
			</path>
			<path fill="#539256" style="fill: var(--color6, #539256)" d="M6.786 23.14c-0.122 0-0.22-0.024-0.291-0.073-0.245-0.167-0.233-0.672-0.223-1.079 0.013-0.543-0.503-0.704-0.88-0.821-0.499-0.155-0.697-0.252-0.653-0.588 0.024-0.18 0.101-0.317 0.236-0.418 0.178-0.134 0.438-0.19 0.674-0.207 0.669 1.039 1.692 1.617 2.886 1.617 0.151 0 0.306-0.009 0.462-0.028 1.48-0.203 2.969-0.518 4.454-0.945 0.058 0.079 0.115 0.157 0.171 0.235 0.151 0.207 0.297 0.409 0.445 0.597-0.239-0.070-0.458-0.104-0.657-0.104-0.157 0-0.302 0.021-0.436 0.064-0.365 0.116-0.65 0.389-0.847 0.813-0.172 0.368-0.439 0.595-0.716 0.609-0.008 0-0.016 0-0.024 0-0.259 0-0.51-0.182-0.709-0.519-0.164-0.278-0.338-0.432-0.547-0.485-0.053-0.013-0.106-0.020-0.159-0.020-0.29 0-0.594 0.184-0.991 0.424-0.343 0.208-0.77 0.466-1.333 0.703-0.356 0.15-0.648 0.225-0.863 0.225zM19.923 20.078c-0.049 0-0.101-0.001-0.154-0.004-0.103-0.556-0.085-1.212 0.078-1.898 1.932-0.893 3.734-1.942 5.381-3.132 0.8-0.598 1.266-1.408 1.372-2.319 0.014-0.003 0.027-0.005 0.040-0.008 0.115 0.683-0.001 1.574-0.92 2.414-1.846 1.688-3.927 2.14-4.87 3.102-0.568 0.58-0.63 1.323-0.589 1.823-0.104 0.015-0.216 0.022-0.34 0.022z">
			</path>
			<path fill="#6d184e" style="fill: var(--color3, #6d184e)" d="M5.837 19.947c-0.275 0-0.634 0.043-0.862 0.214-0.135 0.102-0.212 0.238-0.236 0.418-0.044 0.337 0.154 0.433 0.653 0.588 0.377 0.117 0.894 0.278 0.88 0.821-0.010 0.406-0.022 0.912 0.223 1.079 0.197 0.135 0.596 0.082 1.154-0.153 0.563-0.237 0.99-0.495 1.333-0.703 0.47-0.284 0.81-0.49 1.15-0.404 0.209 0.053 0.383 0.207 0.547 0.485 0.205 0.347 0.465 0.53 0.732 0.519 0.277-0.013 0.545-0.241 0.716-0.609 0.197-0.424 0.483-0.697 0.847-0.813 0.554-0.176 1.299 0.011 2.278 0.571 0.59 0.337 0.909-0.002 1.468-0.683 0.541-0.66 1.215-1.482 2.441-1.273 1.544 0.263 1.899-0.199 2.544-1.037 0.188-0.245 0.402-0.523 0.67-0.809 0.583-0.622 1.412-0.658 2.143-0.689 0.497-0.021 0.966-0.041 1.17-0.263 0.106-0.116 0.152-0.297 0.141-0.554-0.055-1.259 0.010-1.45 0.587-1.7 0.175-0.077 0.394-0.172 0.689-0.386 0.487-0.354 0.726-0.967 0.557-1.428-0.167-0.453-0.683-0.67-1.453-0.611-0.516 0.040-1.36 0.665-2.428 1.456-1.519 1.125-3.599 2.666-6.465 3.908-3.383 1.466-7.131 2.165-11.136 2.078-0.010-0-0.019-0.001-0.029-0.002-0.069-0.011-0.182-0.020-0.314-0.020zM6.784 23.589c-0.216 0-0.395-0.050-0.542-0.15-0.447-0.305-0.431-0.946-0.419-1.461 0.004-0.174-0.137-0.248-0.565-0.381-0.423-0.132-1.063-0.331-0.965-1.076 0.040-0.302 0.179-0.544 0.413-0.72 0.526-0.394 1.367-0.298 1.497-0.28 9.089 0.193 14.235-3.619 17.311-5.898 1.214-0.9 2.016-1.494 2.661-1.544 1.384-0.106 1.797 0.597 1.91 0.904 0.24 0.653-0.061 1.472-0.715 1.947-0.335 0.243-0.588 0.354-0.774 0.434-0.214 0.093-0.254 0.117-0.286 0.207-0.058 0.166-0.055 0.529-0.031 1.062 0.017 0.382-0.068 0.669-0.259 0.877-0.33 0.359-0.89 0.383-1.482 0.408-0.677 0.029-1.377 0.058-1.834 0.547-0.254 0.271-0.451 0.527-0.642 0.776-0.651 0.846-1.165 1.514-2.976 1.206-0.969-0.165-1.502 0.486-2.019 1.115-0.511 0.623-1.091 1.33-2.038 0.788-0.852-0.487-1.498-0.666-1.919-0.532-0.243 0.077-0.432 0.265-0.576 0.574-0.243 0.522-0.655 0.846-1.102 0.868-0.442 0.022-0.847-0.241-1.141-0.739-0.098-0.166-0.186-0.256-0.27-0.277-0.158-0.040-0.445 0.134-0.807 0.353-0.356 0.215-0.798 0.483-1.391 0.732-0.412 0.173-0.756 0.259-1.040 0.259z">
			</path>
			<path fill="#db2839" style="fill: var(--color7, #db2839)" d="M22.583 8.592c-0.273 0.109-0.508 0.282-0.7 0.502-1.173 0.807-3.727 2.433-6.968 3.714-3.229 1.309-6.2 1.895-7.605 2.12-0.292-0.027-0.58 0.011-0.854 0.12-1.246 0.499-1.693 2.307-1 4.039s2.070 2.406 3.511 2.233c3.206-0.438 6.070-1.361 8.414-2.354 2.381-0.899 5.091-2.207 7.714-4.102 1.162-0.869 1.694-2.307 1-4.039s-2.265-2.732-3.511-2.233z">
			</path>
			<path fill="#a92142" style="fill: var(--color8, #a92142)" d="M8.526 21.122c-1.286 0-2.315-0.755-2.861-2.119-0.042-0.104-0.079-0.209-0.112-0.313 0.086-0.030 0.173-0.059 0.263-0.087-0.063 0.29-0.074 0.588 0.088 0.834 0.161 0.245 0.452 0.384 0.89 0.425 0.064 0.006 0.127 0.009 0.188 0.009 0.908 0 1.493-0.637 1.927-1.11 0.266-0.29 0.517-0.563 0.723-0.563 0.002 0 0.003 0 0.005 0 0.12 0.002 0.263 0.1 0.424 0.289 0.57 0.672 1.315 1.038 2.11 1.038 0.036 0 0.072-0.001 0.108-0.002 0.096-0.004 0.191-0.013 0.285-0.028 0.22 0.238 0.418 0.48 0.602 0.719-1.41 0.397-2.821 0.692-4.223 0.884-0.141 0.017-0.279 0.025-0.414 0.025zM9.558 18.753c-0.035 0-0.066 0.019-0.094 0.060-0.113 0.164-0.356 0.394-0.611 0.615-0.168 0.145-0.118 0.414 0.089 0.495 0.369 0.145 0.763 0.215 1.167 0.215 0.143 0 0.288-0.009 0.433-0.026 0.004-0.001 0.009-0.001 0.013-0.002 0.28-0.038 0.346-0.414 0.097-0.548-0.635-0.341-0.917-0.81-1.094-0.81zM20.018 17.6c0.27-0.763 0.722-1.537 1.388-2.228 0.102 0.009 0.207 0.014 0.311 0.014 0.091 0 0.182-0.004 0.272-0.013-0.234 0.268-0.438 0.53-0.61 0.765-0.149 0.205 0.013 0.463 0.231 0.463 0.041 0 0.084-0.009 0.128-0.030 0.622-0.298 1.254-0.623 1.891-0.979-1.14 0.734-2.346 1.405-3.611 2.008zM23.449 14.021c0.013-0.047 0.025-0.092 0.035-0.137 1.063-0.557 1.949-0.869 2.653-1.051-0.010 0.055-0.021 0.11-0.033 0.165-1.002 0.061-1.896 0.477-2.654 1.023z">
			</path>
			<path fill="#6d184e" style="fill: var(--color3, #6d184e)" d="M7.13 15.144c-0.206 0-0.404 0.037-0.59 0.112-0.534 0.214-0.921 0.712-1.093 1.402-0.178 0.718-0.101 1.55 0.218 2.344 0.604 1.508 1.797 2.271 3.275 2.094 2.776-0.38 5.587-1.166 8.353-2.337 0.003-0.001 0.005-0.002 0.008-0.003 2.81-1.061 5.388-2.431 7.662-4.074 1.189-0.889 1.527-2.265 0.923-3.773-0.646-1.614-2.090-2.56-3.219-2.108v0c-0.234 0.093-0.44 0.242-0.615 0.441-0.012 0.014-0.026 0.026-0.042 0.037-1.23 0.847-3.777 2.459-7.013 3.738-3.222 1.306-6.178 1.897-7.653 2.133-0.019 0.003-0.037 0.003-0.056 0.002-0.054-0.005-0.107-0.007-0.159-0.007zM8.535 21.571c-1.468 0-2.675-0.872-3.287-2.4-0.353-0.881-0.437-1.811-0.237-2.619 0.207-0.835 0.69-1.443 1.362-1.712 0.292-0.117 0.604-0.163 0.929-0.138 1.465-0.236 4.366-0.82 7.53-2.102 3.176-1.255 5.679-2.835 6.902-3.675 0.218-0.242 0.476-0.424 0.767-0.541 1.359-0.544 3.065 0.514 3.803 2.358 0.675 1.686 0.273 3.295-1.074 4.302-2.308 1.667-4.919 3.056-7.765 4.131-2.801 1.186-5.649 1.982-8.467 2.367-0.156 0.019-0.311 0.028-0.462 0.028z">
			</path>
			<path fill="#fcaf15" style="fill: var(--color9, #fcaf15)" d="M5.871 16.937c0 0-1.512 0.609-1.885 1.649-0.222 0.618 0.416 0.273 1.386-0.072 0.663-0.236 1.481-0.471 2.286-0.4 0.735 0.065 1.017-0.155 1.222-0.375 0.347-0.374 0.472-0.749 2.215 0.277 2.769 1.63 3.024 4.339 4.909 4.388 0.755 0.020 1.189-0.224 1.483-0.467 0.44-0.364 0.567-0.728 0.991-0.21 0.707 0.864 2.047 0.707 1.311-0.854s-0.27-4.997 3.068-6.902c3.338-1.905 5.125-1.492 5.282-1.767s-0.589-1.689-2.965-1.728c-2.376-0.039-8.345 6.028-19.301 6.46z">
			</path>
			<path fill="#d18126" style="fill: var(--color10, #d18126)" d="M16.082 22.182c-0.024 0-0.049-0-0.074-0.001-0.868-0.023-1.352-0.689-2.022-1.612-0.272-0.374-0.572-0.788-0.937-1.203 0.47-0.176 0.885-0.494 1.192-0.923 0.29-0.407 0.542-0.562 0.853-0.562 0.301 0 0.658 0.146 1.159 0.352 0.317 0.13 0.676 0.277 1.094 0.411 0.272 0.088 0.539 0.131 0.794 0.131 0.453 0 0.869-0.136 1.207-0.402-0.046 0.086-0.087 0.174-0.123 0.261-0.407 0.218-0.806 0.299-1.191 0.299-0.554 0-1.076-0.168-1.54-0.336s-0.869-0.336-1.189-0.336c-0.178 0-0.331 0.052-0.452 0.185-0.433 0.476-0.86 0.95-1.122 1.097 0.775 1.056 1.249 1.943 2.317 1.971 0.026 0.001 0.052 0.001 0.077 0.001 0.721 0 1.13-0.271 1.405-0.542s0.418-0.542 0.605-0.542c0.094 0 0.2 0.068 0.34 0.239 0.252 0.308 0.585 0.486 0.875 0.517 0.129 0.385 0.107 0.66-0.004 0.835-0.219-0.033-0.487-0.177-0.697-0.433-0.124-0.151-0.294-0.327-0.517-0.339-0.008-0-0.017-0.001-0.026-0.001-0.217 0-0.375 0.152-0.542 0.314-0.273 0.264-0.644 0.622-1.484 0.622zM4.187 18.693c0.003-0.009 0.006-0.020 0.010-0.031 0.136-0.38 0.45-0.7 0.776-0.948 0.204-0.004 0.416-0.020 0.625-0.036 0.13-0.010 0.252-0.019 0.372-0.026 0.012-0.001 0.023-0.001 0.032-0.001 0.031 0 0.050 0.003 0.061 0.006 0.011 0.077-0.050 0.276-0.1 0.431-0.412 0.115-0.792 0.258-1.12 0.381-0.23 0.087-0.504 0.19-0.658 0.223z">
			</path>
			<path fill="#f8ce36" style="fill: var(--color11, #f8ce36)" d="M7.685 18.117c1.203 0.097 1.167-0.586 1.619-0.736-0.855-0.192-0.627 0.638-1.619 0.736z">
			</path>
			<path fill="#f8ce36" style="fill: var(--color11, #f8ce36)" d="M3.963 18.872c0.191 0.295 1.644-0.677 3.181-0.764-1.257-0.076-2.531 0.567-3.181 0.764z">
			</path>
			<path fill="#fed78a" style="fill: var(--color12, #fed78a)" d="M19.44 21.189c-0.029 0-0.059-0.002-0.089-0.005-0.032-0.097-0.074-0.2-0.126-0.31-0.257-0.546-0.35-1.398 0.001-2.241 0.030-0.016 0.061-0.033 0.091-0.051-0.125 0.888-0.036 1.746 0.267 2.388 0.030 0.063 0.056 0.124 0.079 0.183-0.068 0.024-0.143 0.037-0.223 0.037z">
			</path>
			<path fill="#e8c093" style="fill: var(--color13, #e8c093)" d="M19.441 22.026c-0.030 0-0.061-0.002-0.094-0.007 0.111-0.174 0.133-0.449 0.004-0.834 0.030 0.003 0.060 0.005 0.089 0.005 0.080 0 0.155-0.012 0.223-0.037 0.157 0.406 0.153 0.714-0.019 0.823-0.054 0.034-0.123 0.051-0.203 0.051zM19.225 18.633c0.036-0.087 0.077-0.174 0.123-0.261 0-0 0.001-0.001 0.001-0.001-0.012 0.070-0.024 0.141-0.034 0.211-0.030 0.018-0.061 0.035-0.091 0.051z">
			</path>
			<path fill="#d18126" style="fill: var(--color10, #d18126)" d="M20.122 16.303c-0.022-0.212-0.067-0.43-0.136-0.65-0.1-0.322-0.042-0.395-0.039-0.398 0.026-0.030 0.096-0.042 0.188-0.042 0.177 0 0.436 0.042 0.629 0.073 0.028 0.004 0.056 0.009 0.085 0.014-0.295 0.335-0.534 0.674-0.728 1.003z">
			</path>
			<path fill="#6d184e" style="fill: var(--color3, #6d184e)" d="M9.487 17.13c0.35 0 0.861 0.188 1.721 0.694 1.371 0.807 2.151 1.882 2.778 2.745 0.67 0.923 1.154 1.59 2.022 1.612 0.893 0.021 1.277-0.349 1.558-0.621 0.173-0.168 0.337-0.326 0.567-0.313 0.222 0.013 0.393 0.188 0.517 0.339 0.323 0.395 0.783 0.522 0.993 0.39 0.197-0.125 0.174-0.51-0.060-1.006-0.428-0.907-0.429-2.245-0.003-3.491 0.368-1.075 1.215-2.591 3.163-3.702 2.404-1.371 4.033-1.563 4.815-1.655 0.135-0.016 0.285-0.034 0.367-0.052-0.017-0.077-0.076-0.23-0.246-0.427-0.236-0.274-0.955-0.915-2.512-0.94-0.723-0.014-1.866 0.621-3.449 1.498-3.353 1.856-8.416 4.659-15.798 4.96-0.218 0.095-1.418 0.652-1.723 1.502-0.004 0.011-0.007 0.021-0.010 0.030 0.154-0.033 0.428-0.136 0.658-0.223 0.753-0.284 1.784-0.671 2.832-0.578 0.712 0.064 0.904-0.152 1.106-0.381 0.194-0.219 0.379-0.381 0.703-0.381zM16.086 22.631c-0.029 0-0.059-0-0.090-0.001-1.090-0.028-1.685-0.848-2.374-1.797-0.634-0.873-1.352-1.862-2.643-2.622-0.702-0.413-1.18-0.62-1.46-0.633-0.181-0.007-0.25 0.060-0.4 0.23-0.229 0.259-0.544 0.614-1.482 0.531-0.947-0.084-1.922 0.283-2.634 0.551-0.627 0.236-0.973 0.367-1.184 0.159-0.176-0.173-0.078-0.449-0.045-0.539 0.402-1.123 1.947-1.756 2.012-1.782 0.024-0.010 0.049-0.015 0.075-0.016 7.298-0.288 12.318-3.067 15.639-4.906 1.644-0.91 2.832-1.567 3.674-1.554 1.685 0.028 2.685 0.739 3.059 1.396 0.089 0.157 0.221 0.453 0.098 0.668-0.102 0.179-0.309 0.203-0.72 0.251-0.753 0.089-2.321 0.273-4.645 1.599-3.092 1.764-3.722 5.028-2.976 6.61 0.495 1.050 0.090 1.453-0.107 1.577-0.438 0.276-1.132 0.064-1.581-0.485-0.136-0.167-0.194-0.175-0.195-0.175-0.038 0.003-0.153 0.114-0.229 0.188-0.291 0.282-0.772 0.749-1.793 0.749z">
			</path>
			<path fill="#f8ce36" style="fill: var(--color11, #f8ce36)" d="M17.747 19.836c0 0-0.685 1.274-1.698 1.119-0.768-0.118 0.516 0.032 0.849-0.898 0.385-1.075 1.047-0.515 0.849-0.221z">
			</path>
			<path fill="#48c75a" style="fill: var(--color4, #48c75a)" d="M6.813 14.63c0 0-2.71 0.147-3.034 1.649s1.090 1.208 2.18 1.149c1.090-0.059-1.031 2.032 0.854 2.209 0.788 0.074 1.313-0.377 1.742-0.828 0.597-0.628 1.006-1.256 1.674-0.468 1.149 1.355 2.945 1.208 3.829-0.029s1.62-0.442 3.358 0.118 2.916-0.913 2.356-2.71c-0.278-0.892 0.323-0.768 1.102-0.643 0.791 0.126 1.766 0.252 2.196-0.682 0.854-1.855-0.972-2.179 1.208-2.621s3.122-0.589 2.768-1.782c-0.353-1.193-1.178-2.076-3.947-0.898s-5.272 6.332-16.287 5.537z">
			</path>
			<path fill="#539256" style="fill: var(--color6, #539256)" d="M6.378 18.271c0.117-0.36 0.216-0.671 0.044-0.894-0.089-0.116-0.231-0.175-0.421-0.175-0.018 0-0.035 0-0.054 0.001-0.125 0.007-0.256 0.017-0.382 0.026-0.228 0.017-0.467 0.035-0.689 0.035-0.026 0-0.051-0-0.076-0.001 0.152-0.542 0.433-1.071-0.070-1.071-0.014 0-0.028 0-0.044 0.001-0.214 0.012-0.441 0.032-0.665 0.047 0.116-0.387 0.43-0.667 0.809-0.87 0.043 0.221 0.094 0.439 0.15 0.655 0.9 0.455 1.87 0.765 2.892 0.939-0.409 0.351-0.834 1.015-1.494 1.305zM10.899 18.067c-0.254 0-0.511-0.042-0.763-0.129-0.134-0.103-0.269-0.163-0.406-0.183-0.276-0.155-0.538-0.369-0.773-0.646-0.003-0.004-0.006-0.007-0.010-0.011 0.321 0.024 0.646 0.037 0.974 0.037 1.002 0 2.037-0.113 3.090-0.33-0.075 0.078-0.15 0.169-0.226 0.276-0.457 0.64-1.158 0.988-1.887 0.988zM16.868 17.317c-0.227 0-0.47-0.038-0.725-0.12-0.8-0.257-1.388-0.565-1.875-0.701 0.79-0.223 1.586-0.502 2.382-0.835 0.003-0.001 0.007-0.003 0.010-0.004 0.001-0 0.002-0.001 0.003-0.001 0.003-0.001 0.005-0.002 0.007-0.003 0.001-0 0.002-0.001 0.003-0.001 0.002-0.001 0.005-0.002 0.007-0.003 0.001-0 0.002-0.001 0.002-0.001 0.003-0.001 0.006-0.003 0.010-0.004l0-0c0.004-0.001 0.007-0.003 0.010-0.004 0-0 0-0 0.001-0 0.003-0.001 0.006-0.003 0.010-0.004 0-0 0.001-0 0.002-0.001 0.003-0.001 0.006-0.002 0.009-0.004 0-0 0.001-0 0.001-0.001 0.003-0.001 0.006-0.003 0.010-0.004l0-0c0.007-0.003 0.014-0.006 0.021-0.009 0 0 0.001-0 0.001-0 0.003-0.001 0.006-0.003 0.010-0.004 0-0 0.001-0 0.001-0 0.014-0.006 0.028-0.012 0.042-0.018l0-0c0.032-0.013 0.063-0.027 0.095-0.041l0.001-0c0.014-0.006 0.028-0.012 0.042-0.018l0-0c0.014-0.006 0.028-0.012 0.042-0.018 0-0 0-0 0.001-0.001 0.014-0.006 0.027-0.012 0.041-0.018 0-0 0.001-0 0.001-0 0.003-0.001 0.006-0.003 0.009-0.004 0.001-0 0.001-0 0.001-0 0.010-0.004 0.020-0.009 0.031-0.013 0-0 0.001-0 0.001-0.001 0.003-0.001 0.006-0.002 0.009-0.004 0-0 0.001-0 0.002-0.001 0.004-0.001 0.006-0.003 0.010-0.004h0c0.007-0.003 0.014-0.006 0.020-0.009 0.001-0 0.001-0.001 0.002-0.001 0.003-0.001 0.006-0.003 0.008-0.004 0.001-0 0.001-0.001 0.002-0.001 0.003-0.001 0.006-0.002 0.008-0.004 0.001-0 0.001-0.001 0.002-0.001 0.006-0.003 0.013-0.006 0.019-0.009 0.001-0 0.002-0.001 0.003-0.001 0.002-0.001 0.005-0.002 0.007-0.003 0.001-0.001 0.002-0.001 0.003-0.001 0.002-0.001 0.004-0.002 0.007-0.003 0.001-0.001 0.002-0.001 0.003-0.001 0.003-0.001 0.005-0.002 0.008-0.004 0-0 0.001-0.001 0.002-0.001 0.003-0.001 0.007-0.003 0.010-0.004 0.001-0 0.002-0.001 0.002-0.001 0.002-0.001 0.005-0.002 0.007-0.003 0.001-0.001 0.002-0.001 0.004-0.002s0.004-0.002 0.006-0.003c0.002-0.001 0.003-0.001 0.004-0.002s0.003-0.001 0.005-0.002c0.001-0.001 0.003-0.001 0.004-0.002s0.003-0.002 0.005-0.002 0.006-0.003 0.009-0.004c0.001-0.001 0.003-0.001 0.004-0.002s0.004-0.002 0.006-0.002c0.001-0.001 0.002-0.001 0.004-0.002s0.004-0.002 0.006-0.003c0.001-0 0.002-0.001 0.003-0.001 0.002-0.001 0.004-0.002 0.006-0.003 0 0 0-0 0.001-0 0.008-0.004 0.016-0.007 0.024-0.011 0 0 0.001-0 0.001-0 0.003-0.001 0.005-0.002 0.008-0.004l0-0c0.433-0.197 0.854-0.407 1.262-0.627 0.317 1.417-0.455 2.57-1.701 2.57zM20.456 13.931c-0.155 0-0.312-0.013-0.467-0.031 0.742-0.489 1.428-1.020 2.048-1.59-0.020 0.242-0.087 0.523-0.239 0.852-0.282 0.612-0.798 0.769-1.342 0.769zM23.767 10.386c0.337-0.463 0.636-0.945 0.892-1.442-0.017-0.036-0.033-0.072-0.050-0.107 0.242-0.048 0.464-0.073 0.666-0.073 0.191 0 0.364 0.022 0.519 0.065 0.258 0.984-0.43 1.224-2.027 1.557z">
			</path>
			<path fill="#a4e3ad" style="fill: var(--color14, #a4e3ad)" d="M12.168 19.075c-0.007 0-0.014-0-0.022-0 0.398-0.175 0.755-0.459 1.029-0.842 0.364-0.509 0.704-0.693 1.092-0.693 0.085 0 0.172 0.009 0.262 0.025-0.22 0.114-0.436 0.311-0.655 0.617-0.386 0.54-0.976 0.865-1.618 0.892-0.030 0.001-0.059 0.002-0.089 0.002z">
			</path>
			<path fill="#a4e3ad" style="fill: var(--color14, #a4e3ad)" d="M18.279 18.321c0.875-0.404 1.212-1.508 0.951-2.835-0.103-0.526 0.126-0.657 0.515-0.657 0.014 0 0.028 0 0.043 0-0.069 0.030-0.129 0.073-0.18 0.132-0.203 0.234-0.126 0.583-0.050 0.825 0.259 0.831 0.12 1.644-0.362 2.122-0.249 0.246-0.561 0.385-0.916 0.413zM21.734 14.936c-0.049 0-0.099-0.001-0.149-0.004 0.463-0.069 0.884-0.29 1.142-0.851 0.905-1.966-1.030-2.31 1.28-2.778 1.586-0.321 2.553-0.496 2.883-0.983 0.023 0.202-0.021 0.31-0.062 0.378-0.226 0.376-1.083 0.549-2.38 0.811l-0.212 0.043c-0.74 0.15-1.070 0.294-1.218 0.53-0.136 0.217-0.078 0.445-0.017 0.687 0.091 0.357 0.204 0.802-0.132 1.531-0.226 0.49-0.622 0.635-1.133 0.635z">
			</path>
			<path fill="#6d184e" style="fill: var(--color3, #6d184e)" d="M6.001 17.202c0.191 0 0.332 0.058 0.421 0.175 0.173 0.225 0.071 0.538-0.047 0.902-0.108 0.332-0.23 0.709-0.098 0.91 0.080 0.122 0.267 0.197 0.556 0.224 0.795 0.074 1.298-0.474 1.742-0.957 0.338-0.369 0.657-0.719 1.068-0.708 0.258 0.005 0.506 0.152 0.757 0.448 0.504 0.594 1.163 0.906 1.856 0.877 0.643-0.027 1.233-0.352 1.618-0.892 0.779-1.090 1.521-0.786 2.548-0.365 0.309 0.127 0.66 0.27 1.061 0.4 0.682 0.219 1.289 0.111 1.711-0.307 0.482-0.477 0.621-1.291 0.362-2.122-0.076-0.242-0.153-0.592 0.050-0.825 0.24-0.277 0.698-0.204 1.229-0.118 0.939 0.151 1.686 0.207 2.030-0.542 0.336-0.729 0.223-1.174 0.132-1.531-0.062-0.242-0.12-0.47 0.017-0.687 0.148-0.236 0.478-0.379 1.219-0.529l0.212-0.043c1.297-0.262 2.155-0.435 2.38-0.811 0.056-0.094 0.118-0.262 0.005-0.644-0.178-0.601-0.442-0.967-0.831-1.15-0.594-0.28-1.541-0.147-2.813 0.394-0.656 0.279-1.318 0.808-2.085 1.421-1.197 0.956-2.686 2.147-4.92 3.017-2.612 1.017-5.678 1.382-9.371 1.117-0.198 0.014-2.54 0.205-2.813 1.471-0.074 0.343-0.050 0.587 0.070 0.725 0.239 0.274 0.906 0.223 1.496 0.178 0.126-0.010 0.257-0.020 0.382-0.026 0.018-0.001 0.036-0.001 0.054-0.001zM6.98 19.87c-0.061 0-0.124-0.003-0.188-0.009-0.438-0.041-0.729-0.18-0.89-0.425-0.251-0.382-0.087-0.889 0.045-1.296 0.052-0.16 0.129-0.397 0.117-0.483-0.015-0.003-0.043-0.008-0.094-0.005-0.12 0.006-0.243 0.016-0.372 0.026-0.728 0.055-1.482 0.112-1.868-0.331-0.222-0.254-0.278-0.619-0.171-1.115 0.356-1.651 3.123-1.82 3.241-1.826 0.009-0 0.019-0 0.028 0 8.205 0.592 11.55-2.083 13.993-4.036 0.792-0.634 1.477-1.181 2.189-1.484 1.415-0.602 2.455-0.729 3.18-0.387 0.513 0.242 0.853 0.695 1.070 1.428 0.123 0.414 0.106 0.742-0.051 1.003-0.328 0.545-1.212 0.724-2.677 1.020l-0.212 0.043c-0.549 0.111-0.86 0.222-0.927 0.328-0.032 0.051-0.006 0.161 0.038 0.337 0.097 0.381 0.243 0.956-0.159 1.83-0.515 1.118-1.716 0.926-2.51 0.798-0.295-0.047-0.742-0.119-0.818-0.031-0.003 0.003-0.061 0.075 0.039 0.397 0.314 1.007 0.136 1.97-0.475 2.575-0.538 0.534-1.328 0.685-2.165 0.415-0.418-0.135-0.777-0.282-1.094-0.411-1.019-0.417-1.44-0.59-2.012 0.21-0.467 0.654-1.183 1.047-1.965 1.080-0.835 0.035-1.622-0.333-2.218-1.036-0.161-0.19-0.303-0.287-0.424-0.289-0.001 0-0.003 0-0.005 0-0.206 0-0.457 0.273-0.723 0.563-0.434 0.473-1.019 1.11-1.927 1.11z">
			</path>
			<path fill="#f9a332" style="fill: var(--color1, #f9a332)" d="M16.65 15.661c3.634-1.519 6.531-3.844 8.008-6.718-1.641-3.549-5.206-6.026-9.357-6.093-5.767-0.093-10.565 4.54-10.665 10.307-0.017 0.994 0.104 1.956 0.345 2.87 3.269 1.655 7.47 1.389 11.67-0.366z">
			</path>
			<path fill="#fff6af" style="fill: var(--color15, #fff6af)" d="M16.73 2.971v0zM16.719 2.969c-0 0-0-0-0-0s0 0 0 0zM16.714 2.968c-0 0 0 0-0-0l0 0zM16.709 2.968c-0 0-0 0-0.001-0s0.001 0 0.001 0zM16.703 2.967v0zM16.686 2.964c-0-0-0-0-0-0s0 0 0 0zM16.659 2.96c-0 0-0 0-0.001 0s0 0 0.001 0zM16.654 2.96c-0.001 0-0.001-0-0.001-0s0.001 0 0.001 0zM16.649 2.959c-0.001 0-0.001-0-0.002-0 0.001 0 0.001 0 0.002 0zM16.644 2.958c-0.001-0-0.002-0-0.003-0 0.001 0 0.002 0 0.003 0zM16.639 2.957c-0.001 0-0.002-0-0.003-0 0.001 0 0.002 0 0.003 0zM16.633 2.956c-0.001 0-0.002-0-0.003-0 0.001 0 0.002 0 0.003 0zM16.627 2.956c-0.001-0-0.002-0-0.003-0 0.001 0 0.001 0 0.003 0zM16.621 2.955c-0.001-0-0.002-0-0.003-0 0.001 0 0.002 0 0.003 0zM16.616 2.954c-0.001 0-0.002-0-0.003-0 0.001 0 0.002 0 0.003 0zM16.61 2.953c-0.001 0-0.002-0-0.003-0 0.001 0 0.002 0 0.003 0zM16.604 2.952c-0.001-0-0.002-0-0.003-0 0.001 0 0.002 0 0.003 0zM16.598 2.951c-0.001-0-0.002-0-0.003-0 0.001 0 0.002 0 0.003 0zM16.593 2.951c-0.002-0-0.003-0-0.005-0.001 0.002 0 0.003 0 0.005 0.001zM16.587 2.95c-0.002-0-0.003-0-0.005-0.001 0.002 0 0.004 0.001 0.005 0.001zM16.58 2.949c-0.002-0-0.003-0-0.005-0.001 0.002 0 0.003 0.001 0.005 0.001zM16.574 2.948c-0.001-0-0.003-0-0.004-0.001 0.002 0 0.003 0 0.004 0.001zM16.568 2.947c-0.001-0-0.003-0-0.004-0.001 0.002 0 0.003 0 0.004 0.001zM16.562 2.947c-0.001-0-0.002-0-0.003-0 0.001 0 0.002 0 0.003 0zM16.556 2.946c-0.001-0-0.002-0-0.004-0 0.001 0 0.002 0 0.004 0zM16.551 2.945c-0.001-0-0.003-0-0.004-0.001 0.001 0 0.003 0 0.004 0.001zM16.545 2.944c-0.001-0-0.003-0-0.004-0 0.001 0 0.003 0 0.004 0zM16.539 2.943c-0.001-0-0.003-0-0.004-0.001 0.002 0 0.003 0 0.004 0.001zM16.534 2.943c-0.002-0-0.003-0-0.004-0.001 0.001 0 0.003 0 0.004 0.001zM16.528 2.942c-0.001 0-0.003-0-0.004-0 0.001 0 0.003 0 0.004 0zM16.522 2.941c-0.002-0-0.003-0-0.005-0.001 0.002 0 0.003 0 0.005 0.001zM16.516 2.94c-0.002-0-0.003-0-0.005-0.001 0.002 0 0.004 0 0.005 0.001zM16.511 2.94c-0.002-0-0.004-0-0.006-0.001 0.002 0 0.004 0 0.006 0.001zM16.505 2.939c-0.012-0.002-0.023-0.003-0.035-0.005 0.012 0.001 0.023 0.003 0.035 0.005zM16.469 2.934c-0.002-0-0.003-0-0.005-0.001 0.001 0 0.004 0 0.005 0.001zM16.463 2.934c-0.002-0-0.004-0-0.006-0.001 0.002 0 0.004 0 0.006 0.001zM16.458 2.933c-0.004-0-0.008-0.001-0.012-0.001 0.004 0 0.008 0.001 0.012 0.001zM16.446 2.931c-0.002-0-0.003-0.001-0.006-0.001 0.002 0 0.004 0 0.006 0.001zM16.44 2.93c-0.002-0-0.004-0-0.006-0.001 0.002 0 0.004 0 0.006 0.001zM16.434 2.93c-0.321-0.040-0.646-0.065-0.975-0.075 0.329 0.010 0.654 0.036 0.975 0.075zM15.459 2.854c-0.002 0-0.004 0-0.006 0 0.002 0 0.004 0 0.006 0zM15.452 2.854c-0.002-0-0.004-0-0.006-0 0.002 0 0.004 0 0.006 0zM15.446 2.854c-0.002-0-0.004-0-0.006-0 0.002 0 0.004 0 0.006 0zM15.44 2.854c-0.002 0-0.004-0-0.005-0 0.002 0 0.004 0 0.005 0zM15.434 2.854c-0.002 0-0.004 0-0.005-0 0.002 0 0.004 0 0.005 0zM15.428 2.854c-0.002 0-0.003 0-0.005 0 0.002 0 0.004 0 0.005 0zM15.422 2.854c-0.002-0-0.004-0-0.006-0 0.002 0 0.004 0 0.006 0zM15.416 2.853c-0.012-0-0.024-0.001-0.036-0.001 0.012 0 0.024 0 0.036 0.001zM15.379 2.852c-0.002 0-0.004 0-0.005 0 0.002 0 0.004 0 0.005 0zM15.374 2.852c-0.002 0-0.004-0-0.005-0 0.002 0 0.004 0 0.005 0zM15.367 2.852c-0.002 0-0.003 0-0.005 0 0.002 0 0.003 0 0.005 0zM15.361 2.852c-0.001-0-0.003-0-0.005-0 0.001 0 0.003 0 0.005 0zM15.355 2.852c-0.001 0-0.003 0-0.004 0 0.001 0 0.003 0 0.004 0zM15.348 2.852c-0.001 0-0.003 0-0.004 0 0.001 0 0.002 0 0.004 0zM15.342 2.852c-0.001 0-0.002 0-0.004-0 0.001 0 0.003 0 0.004 0zM15.336 2.851c-0.001 0-0.003 0-0.004 0 0.001 0 0.003 0 0.004 0zM15.331 2.851c-0.001 0-0.003-0-0.004-0 0.001 0 0.002 0 0.004 0zM15.325 2.851c-0.001 0-0.002 0-0.004 0 0.001 0 0.002 0 0.004 0zM15.319 2.851c-0.001 0-0.002 0-0.004-0 0.001 0 0.002 0 0.004 0zM15.313 2.851c-0.002 0-0.003 0-0.005 0 0.002 0 0.003 0 0.005 0zM15.307 2.851c-0.002 0-0.004 0-0.006-0 0.002 0 0.004 0 0.006 0zM15.301 2.851c-0.005 0-0.011 0-0.016-0 0.005 0 0.011 0 0.016 0zM15.050 2.85c0.014 0 0.028-0 0.041-0 0.001 0 0.003 0 0.005 0-0.015 0-0.031 0-0.046 0z">
			</path>
			<path fill="#fcd199" style="fill: var(--color16, #fcd199)" d="M5.689 8.769c1.694-3.47 5.247-5.872 9.321-5.918 0.013-0 0.026-0.001 0.039-0.001 0.015 0 0.031-0 0.046-0 0.001 0 0.002 0 0.003 0 0.011 0 0.022 0 0.034 0 0.051 0 0.101 0 0.152 0.001 0.005 0 0.011 0 0.016 0 0.002 0 0.004 0 0.006 0 0 0 0.001 0 0.001 0s0.003 0 0.005 0c0.001 0 0.001 0 0.002 0s0.002 0 0.004 0c0.001 0 0.002 0 0.002 0s0.002 0 0.004 0c0.001 0 0.001 0 0.002 0s0.003 0 0.004 0c0.001 0 0.001 0 0.002 0s0.003 0 0.004 0c0.001 0 0.002 0 0.002 0s0.002 0 0.004 0c0.001 0 0.002 0 0.002 0s0.003 0 0.004 0c0.001 0 0.001 0 0.002 0s0.003 0 0.004 0c0.001 0 0.001 0 0.001 0s0.003 0 0.005 0c0 0 0.001 0 0.001 0 0.002 0 0.003 0 0.005 0 0 0 0.001 0 0.001 0 0.002 0 0.003 0 0.005 0h0c0.002 0 0.004 0 0.005 0 0 0 0.001 0 0.001 0 0.012 0 0.024 0.001 0.036 0.001 0 0 0 0 0.001 0 0.002 0 0.004 0 0.006 0 0 0 0 0 0 0 0.002 0 0.003 0 0.005 0 0 0 0.001 0 0.001 0s0.004 0 0.005 0c0 0 0.001 0 0.001 0 0.001 0 0.004 0 0.005 0 0 0 0 0 0.001 0 0.002 0 0.004 0 0.006 0 0 0-0-0 0 0 0.002 0 0.004 0 0.006 0h0c0.002 0 0.004 0 0.006 0 0 0-0 0 0 0 0.329 0.010 0.654 0.036 0.975 0.075h0c0.002 0 0.004 0 0.006 0.001s0.004 0 0.006 0.001l0 0c0.004 0 0.007 0.001 0.012 0.001 0.002 0 0.004 0 0.006 0.001 0 0 0 0 0 0 0.002 0 0.003 0 0.005 0.001 0 0 0 0 0 0 0.012 0.002 0.024 0.003 0.035 0.005 0.002 0 0.004 0.001 0.006 0.001s0.003 0 0.005 0.001c0 0 0.001 0 0.001 0 0.002 0 0.003 0 0.005 0.001 0 0 0 0 0.001 0s0.003 0 0.004 0c0.001 0 0.001 0 0.002 0s0.003 0 0.004 0.001c0 0 0.001 0 0.001 0 0.002 0 0.003 0 0.004 0s0.001 0 0.002 0 0.003 0 0.004 0.001c0 0 0.001 0 0.001 0s0.003 0 0.004 0.001c0.001 0 0.001 0 0.002 0s0.002 0 0.004 0c0.001 0 0.001 0 0.002 0s0.002 0 0.003 0.001c0.001 0 0.001 0 0.002 0s0.003 0 0.004 0c0 0 0.001 0 0.002 0s0.003 0 0.004 0c0 0 0.001 0 0.001 0 0.002 0 0.003 0 0.005 0.001 0 0 0.001 0 0.001 0 0.002 0 0.003 0 0.005 0.001 0 0 0.001 0 0.001 0 0.002 0 0.003 0 0.005 0.001 0 0 0.001 0 0.002 0s0.002 0 0.004 0c0.001 0 0.002 0 0.003 0s0.002 0 0.003 0 0.002 0 0.003 0 0.002 0 0.003 0 0.002 0 0.003 0 0.002 0 0.003 0 0.002 0 0.003 0 0.002 0 0.003 0c0.001 0 0.002 0 0.003 0s0.001 0 0.003 0 0.002 0 0.003 0 0.002 0 0.003 0 0.002 0 0.003 0 0.002 0 0.003 0 0.002 0 0.003 0 0.002 0 0.003 0 0.002 0 0.003 0c0 0 0.001 0 0.002 0s0.003 0 0.004 0.001c0 0 0.001 0 0.002 0s0.003 0 0.004 0.001c0 0 0 0 0.001 0 0.009 0.001 0.018 0.003 0.027 0.004 0 0 0 0 0 0 0.004 0.001 0.007 0.001 0.011 0.002 0.002 0 0.003 0 0.005 0.001h0c0.002 0 0.003 0 0.005 0.001 0 0 0 0 0.001 0 0.002 0 0.003 0 0.005 0.001 0 0 0 0 0 0 0.002 0 0.003 0.001 0.005 0.001 0 0 0 0 0 0 0.002 0 0.004 0.001 0.005 0.001s0.004 0.001 0.006 0.001h0c3.283 0.503 6.065 2.528 7.604 5.332-1.786-2.495-4.566-4.23-7.761-4.629-0.068 0.386-0.705 0.689-1.482 0.689-0.763 0-1.392-0.292-1.478-0.669-1.884 0.263-3.626 0.996-5.099 2.078 0.003-0.005 0.005-0.010 0.008-0.015v0c-0.015 0.014-0.031 0.028-0.046 0.043-1.097 0.812-2.043 1.819-2.786 2.968z">
			</path>
			<path fill="#5b6d54" style="fill: var(--color17, #5b6d54)" d="M16.65 15.661c0.003-0.001 0.007-0.003 0.010-0.004-0.003 0.001-0.007 0.003-0.010 0.004zM16.663 15.656c0.002-0.001 0.005-0.002 0.007-0.003-0.003 0.001-0.004 0.002-0.007 0.003zM16.673 15.652c0.002-0.001 0.005-0.002 0.007-0.003-0.002 0.001-0.005 0.002-0.007 0.003zM16.683 15.648c0.003-0.001 0.006-0.003 0.010-0.004-0.003 0.001-0.006 0.003-0.010 0.004zM16.693 15.643c0.003-0.001 0.007-0.003 0.010-0.004-0.003 0.001-0.007 0.003-0.010 0.004zM16.704 15.639c0.003-0.001 0.006-0.003 0.009-0.004-0.003 0.001-0.006 0.003-0.009 0.004zM16.715 15.634c0.003-0.001 0.006-0.002 0.009-0.004-0.003 0.001-0.006 0.002-0.009 0.004zM16.725 15.63c0.003-0.001 0.007-0.003 0.010-0.004-0.003 0.001-0.006 0.003-0.010 0.004zM16.735 15.625c0.007-0.003 0.014-0.006 0.021-0.009-0.007 0.003-0.014 0.006-0.021 0.009zM16.757 15.616c0.003-0.001 0.006-0.003 0.010-0.004-0.003 0.001-0.006 0.003-0.010 0.004zM16.767 15.612c0.014-0.006 0.028-0.012 0.042-0.018-0.014 0.006-0.028 0.012-0.042 0.018zM16.81 15.594c0.032-0.014 0.063-0.027 0.095-0.041-0.032 0.014-0.063 0.027-0.095 0.041zM16.905 15.553c0.014-0.006 0.028-0.012 0.042-0.018-0.014 0.006-0.028 0.012-0.042 0.018zM16.947 15.535c0.014-0.006 0.028-0.012 0.041-0.018-0.014 0.006-0.028 0.012-0.041 0.018zM16.989 15.516c0.014-0.006 0.028-0.012 0.041-0.018-0.014 0.006-0.027 0.012-0.041 0.018zM17.031 15.498c0.003-0.001 0.006-0.003 0.009-0.004-0.003 0.001-0.006 0.003-0.009 0.004zM17.041 15.493c0.010-0.005 0.021-0.009 0.031-0.014-0.010 0.004-0.020 0.009-0.031 0.014zM17.073 15.479c0.003-0.001 0.006-0.002 0.009-0.004-0.003 0.001-0.006 0.003-0.009 0.004zM17.084 15.475c0.003-0.001 0.006-0.003 0.010-0.004-0.003 0.001-0.006 0.003-0.010 0.004zM17.093 15.47c0.007-0.003 0.014-0.006 0.020-0.009-0.007 0.003-0.014 0.006-0.020 0.009zM17.116 15.46c0.003-0.001 0.006-0.002 0.008-0.004-0.003 0.001-0.006 0.002-0.008 0.004zM17.126 15.456c0.003-0.001 0.006-0.002 0.008-0.004-0.003 0.001-0.006 0.002-0.008 0.004zM17.136 15.451c0.007-0.003 0.013-0.006 0.019-0.009-0.006 0.003-0.013 0.006-0.019 0.009zM17.158 15.441c0.002-0.001 0.005-0.002 0.007-0.003-0.002 0.001-0.005 0.002-0.007 0.003zM17.169 15.437c0.002-0.001 0.004-0.002 0.007-0.003-0.002 0.001-0.004 0.002-0.007 0.003zM17.178 15.432c0.003-0.001 0.005-0.002 0.008-0.003-0.002 0.001-0.005 0.002-0.008 0.003zM17.188 15.428c0.003-0.001 0.007-0.003 0.010-0.004-0.003 0.001-0.006 0.003-0.010 0.004zM17.2 15.423c0.002-0.001 0.005-0.002 0.007-0.003-0.002 0.001-0.005 0.002-0.007 0.003zM17.211 15.418c0.002-0.001 0.004-0.002 0.006-0.003-0.002 0.001-0.004 0.002-0.006 0.003zM17.221 15.413c0.002-0.001 0.003-0.002 0.005-0.002-0.002 0.001-0.003 0.001-0.005 0.002zM17.23 15.409c0.001-0.001 0.003-0.001 0.005-0.002-0.002 0.001-0.003 0.001-0.005 0.002zM17.244 15.403c0.001-0.001 0.003-0.001 0.004-0.002-0.001 0.001-0.003 0.001-0.004 0.002zM17.254 15.398c0.001-0.001 0.003-0.001 0.004-0.002-0.001 0.001-0.002 0.001-0.004 0.002zM17.263 15.394c0.001-0.001 0.002-0.001 0.003-0.001-0.001 0-0.002 0.001-0.003 0.001zM17.273 15.39c0 0 0.001-0 0.001-0s-0 0-0.001 0zM17.297 15.379c0-0 0-0 0.001-0s-0.001 0-0.001 0zM17.306 15.375v0z">
			</path>
			<path fill="#bf6700" style="fill: var(--color2, #bf6700)" d="M9.923 17.133c-0.804 0-1.587-0.073-2.34-0.221-0.372-0.092-0.736-0.202-1.091-0.334-0.654-0.242-1.123-0.823-1.229-1.512-0.090-0.584-0.132-1.184-0.121-1.796 0.051-2.946 1.329-5.595 3.335-7.47 0.013-0.010 0.025-0.019 0.038-0.028-0.76 1.418-1.205 3.030-1.234 4.741-0.001 0.032-0.001 0.065-0.001 0.097-0.015 1.796 1.262 3.339 3.026 3.674 0.729 0.138 1.484 0.206 2.26 0.206 2.142 0 4.436-0.514 6.73-1.473 1.628-0.68 3.107-1.523 4.378-2.504-1.492 1.992-3.71 3.649-6.365 4.861l-0 0c-0.003 0.001-0.005 0.002-0.008 0.004-0 0-0.001 0-0.001 0-0.008 0.004-0.016 0.007-0.024 0.011-0 0-0 0-0.001 0-0.002 0.001-0.004 0.002-0.006 0.003s-0.002 0.001-0.003 0.001-0.004 0.002-0.006 0.003c-0.001 0-0.003 0.001-0.004 0.002s-0.003 0.002-0.005 0.002c-0.001 0.001-0.003 0.001-0.004 0.002-0.003 0.001-0.006 0.003-0.009 0.004-0.002 0.001-0.003 0.001-0.005 0.002s-0.003 0.001-0.004 0.002-0.003 0.001-0.005 0.002-0.003 0.001-0.004 0.002-0.004 0.002-0.006 0.003c-0.001 0.001-0.002 0.001-0.004 0.002-0.003 0.001-0.005 0.002-0.007 0.003-0.001 0-0.002 0.001-0.002 0.001-0.003 0.001-0.007 0.003-0.010 0.004-0.001 0-0.001 0-0.002 0.001-0.003 0.001-0.005 0.002-0.008 0.004-0.001 0-0.002 0.001-0.003 0.002-0.002 0.001-0.004 0.002-0.007 0.003-0.001 0.001-0.002 0.001-0.003 0.001-0.002 0.001-0.005 0.002-0.007 0.003-0.001 0-0.002 0.001-0.003 0.001-0.007 0.003-0.013 0.006-0.019 0.009-0.001 0-0.001 0.001-0.002 0.001-0.003 0.001-0.005 0.002-0.008 0.004-0.001 0-0.001 0.001-0.002 0.001-0.003 0.001-0.006 0.003-0.008 0.004-0.001 0-0.001 0-0.002 0.001-0.007 0.003-0.014 0.006-0.020 0.009h-0c-0.003 0.002-0.006 0.003-0.010 0.004-0 0-0.001 0-0.002 0.001-0.003 0.001-0.005 0.002-0.009 0.004-0.001 0-0.001 0-0.001 0.001-0.010 0.004-0.020 0.009-0.031 0.014-0 0-0 0-0.001 0-0.003 0.001-0.006 0.003-0.009 0.004-0 0-0.001 0-0.001 0-0.014 0.006-0.028 0.012-0.041 0.018-0 0-0.001 0-0.001 0.001-0.014 0.006-0.028 0.012-0.042 0.018-0 0-0 0-0 0-0.014 0.006-0.028 0.012-0.042 0.018-0 0-0 0-0 0-0.032 0.014-0.063 0.027-0.095 0.041l-0 0c-0.014 0.006-0.028 0.012-0.042 0.018-0 0-0.001 0-0.001 0-0.003 0.001-0.006 0.003-0.010 0.004-0 0-0.001 0-0.001 0-0.007 0.003-0.014 0.006-0.021 0.009 0 0 0 0-0 0-0.003 0.001-0.006 0.003-0.010 0.004-0 0-0.001 0-0.001 0.001-0.003 0.001-0.006 0.002-0.009 0.004-0.001 0-0.001 0.001-0.002 0.001-0.003 0.001-0.006 0.003-0.009 0.004-0 0-0 0-0.001 0-0.004 0.002-0.007 0.003-0.010 0.004-0 0-0 0-0 0-0.003 0.001-0.006 0.003-0.010 0.004-0.001 0-0.002 0.001-0.003 0.001-0.002 0.001-0.005 0.002-0.007 0.003-0.001 0-0.002 0.001-0.003 0.001-0.003 0.001-0.005 0.002-0.007 0.003-0.001 0-0.002 0.001-0.003 0.001-0.003 0.002-0.007 0.003-0.010 0.004-2.293 0.958-4.586 1.472-6.728 1.472z">
			</path>
			<path fill="#d19982" style="fill: var(--color18, #d19982)" d="M8.476 5.8c0.015-0.014 0.031-0.028 0.046-0.043v-0c-0.003 0.005-0.005 0.010-0.008 0.015-0.013 0.009-0.025 0.019-0.038 0.028z">
			</path>
			<path fill="#fce69f" style="fill: var(--color19, #fce69f)" d="M9.98 6.861c-0.109 0.342-0.296 0.592-0.416 0.554s-0.128-0.351-0.020-0.693c0.109-0.342 0.296-0.592 0.416-0.554 0.112 0.036 0.128 0.313 0.037 0.635l-0.017 0.057z">
			</path>
			<path fill="#fce69f" style="fill: var(--color19, #fce69f)" d="M11.754 7.081c-0.061 0.354-0.213 0.627-0.337 0.605s-0.175-0.33-0.113-0.683c0.061-0.354 0.214-0.627 0.337-0.605 0.116 0.020 0.17 0.293 0.123 0.624l-0.009 0.059z">
			</path>
			<path fill="#fce69f" style="fill: var(--color19, #fce69f)" d="M14.045 7.010c0.050 0.355-0.011 0.662-0.135 0.679s-0.268-0.261-0.318-0.616c-0.050-0.355 0.011-0.662 0.135-0.679 0.117-0.016 0.251 0.227 0.308 0.557l0.009 0.059z">
			</path>
			<path fill="#fce69f" style="fill: var(--color19, #fce69f)" d="M15.961 6.276c0.19 0.304 0.258 0.61 0.152 0.676s-0.35-0.13-0.54-0.434c-0.19-0.304-0.258-0.61-0.152-0.676 0.1-0.062 0.321 0.105 0.508 0.384l0.033 0.050z">
			</path>
			<path fill="#fce69f" style="fill: var(--color19, #fce69f)" d="M17.43 5.058c0.255 0.253 0.391 0.534 0.302 0.624s-0.37-0.046-0.625-0.299-0.391-0.534-0.302-0.624c0.083-0.083 0.337 0.029 0.582 0.258l0.043 0.042z">
			</path>
			<path fill="#bf6700" style="fill: var(--color2, #bf6700)" d="M10.216 12.663c-0.119 0-0.216-0.097-0.216-0.216s0.097-0.216 0.216-0.216c0.119 0 0.216 0.097 0.216 0.216s-0.097 0.216-0.216 0.216z">
			</path>
			<path fill="#bf6700" style="fill: var(--color2, #bf6700)" d="M13.699 10.611c-0.119 0-0.216-0.097-0.216-0.216s0.097-0.216 0.216-0.216c0.119 0 0.216 0.097 0.216 0.216s-0.097 0.216-0.216 0.216z">
			</path>
			<path fill="#e99335" style="fill: var(--color20, #e99335)" d="M14.413 12.859c-0.119 0-0.216-0.097-0.216-0.216s0.097-0.216 0.216-0.216c0.119 0 0.216 0.097 0.216 0.216s-0.097 0.216-0.216 0.216z">
			</path>
			<path fill="#e99335" style="fill: var(--color20, #e99335)" d="M16.497 10.215c-0.119 0-0.216-0.097-0.216-0.216s0.097-0.216 0.216-0.216c0.119 0 0.216 0.097 0.216 0.216s-0.097 0.216-0.216 0.216z">
			</path>
			<path fill="#bf6700" style="fill: var(--color2, #bf6700)" d="M18.727 11.982c-0.119 0-0.216-0.097-0.216-0.216s0.097-0.216 0.216-0.216c0.119 0 0.216 0.097 0.216 0.216s-0.097 0.216-0.216 0.216z">
			</path>
			<path fill="#bf6700" style="fill: var(--color2, #bf6700)" d="M19.016 8.714c-0.119 0-0.216-0.097-0.216-0.216s0.097-0.216 0.216-0.216c0.119 0 0.216 0.097 0.216 0.216s-0.096 0.216-0.216 0.216z">
			</path>
			<path fill="#bf6700" style="fill: var(--color2, #bf6700)" d="M20.568 6.864c-0.119 0-0.216-0.097-0.216-0.216s0.097-0.216 0.216-0.216c0.119 0 0.216 0.097 0.216 0.216s-0.097 0.216-0.216 0.216z">
			</path>
			<path fill="#e99335" style="fill: var(--color20, #e99335)" d="M10.259 10.42c-0.119 0-0.216-0.097-0.216-0.216s0.097-0.216 0.216-0.216 0.216 0.097 0.216 0.216c0 0.119-0.097 0.216-0.216 0.216z">
			</path>
			<path fill="#bf6700" style="fill: var(--color2, #bf6700)" d="M22.687 8.898c-0.119 0-0.216-0.097-0.216-0.216s0.097-0.216 0.216-0.216c0.119 0 0.216 0.097 0.216 0.216s-0.097 0.216-0.216 0.216z">
			</path>
			<path fill="#e99335" style="fill: var(--color20, #e99335)" d="M21.286 11.257c-0.119 0-0.216-0.097-0.216-0.216s0.097-0.216 0.216-0.216c0.119 0 0.216 0.097 0.216 0.216s-0.097 0.216-0.216 0.216z">
			</path>
			<path fill="#6d184e" style="fill: var(--color3, #6d184e)" d="M15.13 3.074c-5.581 0-10.172 4.491-10.269 10.087-0.010 0.594 0.030 1.19 0.121 1.772 0.094 0.601 0.503 1.105 1.069 1.316 2.937 1.092 6.671 0.81 10.513-0.796 3.263-1.363 5.797-3.314 7.327-5.641 0.35-0.531 0.365-1.224 0.038-1.764-1.843-3.056-5.070-4.915-8.631-4.973-0.056-0.001-0.112-0.001-0.168-0.001zM9.917 17.359c-1.445 0-2.794-0.23-4.024-0.688-0.718-0.267-1.238-0.906-1.356-1.668-0.095-0.607-0.137-1.23-0.126-1.849 0.050-2.849 1.213-5.515 3.276-7.509s4.768-3.066 7.617-3.019c1.847 0.030 3.661 0.538 5.246 1.469 1.539 0.905 2.841 2.191 3.763 3.72 0.415 0.688 0.396 1.568-0.048 2.243-1.579 2.402-4.183 4.411-7.529 5.809-1.938 0.81-3.844 1.296-5.664 1.443-0.392 0.032-0.777 0.048-1.156 0.048z">
			</path>
			<path fill="#fcaf15" style="fill: var(--color9, #fcaf15)" d="M21.58 23.985c-0.129 0.698-0.801 1.159-1.499 1.030s-1.159-0.801-1.030-1.499c0.076-0.41 0.24-0.317 0.509-0.224 0.188 0.065 0.427 0.131 0.723 0.022 0.844-0.31 1.426-0.027 1.297 0.671z">
			</path>
			<path fill="#fed78a" style="fill: var(--color12, #fed78a)" d="M20.079 25.014v0zM20.939 24.126c0.032-0.078 0.056-0.161 0.072-0.247 0.060-0.322-0.033-0.555-0.233-0.683 0.044-0.004 0.087-0.006 0.128-0.006 0.483 0 0.765 0.284 0.676 0.787 0.029-0.161 0.018-0.298-0.023-0.412-0.146 0.225-0.366 0.432-0.619 0.561zM21.581 23.982c0-0 0-0.001 0-0.001s-0 0.001-0 0.001zM21.581 23.98c0-0.001 0-0.002 0-0.003-0 0.001-0 0.002-0 0.003z">
			</path>
			<path fill="#d18126" style="fill: var(--color10, #d18126)" d="M20.081 25.014c-0.001-0-0.001-0-0.002-0 0.001 0 0.001 0 0.002 0zM21.498 24.257c0.037-0.086 0.064-0.177 0.082-0.272 0-0.001 0-0.002 0-0.003-0 0.001-0 0.002-0 0.003-0.018 0.095-0.046 0.186-0.082 0.272z">
			</path>
			<path fill="#6d184e" style="fill: var(--color3, #6d184e)" d="M19.052 23.515c0-0 0-0.001 0-0.001s-0 0.001-0 0.001z">
			</path>
			<path fill="#d18126" style="fill: var(--color10, #d18126)" d="M20.079 25.014c-0.697-0.131-1.157-0.801-1.027-1.499 0-0 0-0.001 0-0.001 0.040-0.212 0.103-0.289 0.192-0.301 0.129 0.455 0.482 0.943 0.979 1.035 0.059 0.011 0.118 0.016 0.177 0.016 0.186 0 0.37-0.052 0.538-0.138-0.188 0.467-0.635 0.781-1.136 0.802 0.087 0.038 0.179 0.067 0.276 0.086zM21.581 23.981c0-0 0-0.001 0-0.002 0 0.001-0 0.001-0 0.002zM21.582 23.977c0 0 0-0 0-0s0 0 0 0z">
			</path>
			<path fill="#d3b392" style="fill: var(--color21, #d3b392)" d="M20.325 25.036c0.511-0.003 0.973-0.312 1.173-0.78-0.2 0.468-0.662 0.776-1.173 0.78z">
			</path>
			<path fill="#d29d78" style="fill: var(--color22, #d29d78)" d="M20.317 25.036c-0.078 0-0.157-0.007-0.236-0.022-0.001-0-0.002-0-0.002-0h-0c-0.097-0.018-0.189-0.048-0.276-0.086 0.501-0.022 0.948-0.335 1.137-0.802 0.253-0.13 0.473-0.337 0.619-0.561 0.042 0.114 0.052 0.252 0.024 0.412 0 0 0 0 0 0s-0 0.002-0 0.003c-0 0.001-0 0.001-0 0.002s-0 0.001-0 0.001-0 0.002-0.001 0.003c-0.017 0.095-0.045 0.186-0.082 0.272-0.2 0.468-0.662 0.776-1.173 0.78-0.003 0-0.006 0-0.008 0z">
			</path>
			<path fill="#6d184e" style="fill: var(--color3, #6d184e)" d="M19.302 23.442c-0.008 0.021-0.019 0.057-0.030 0.115-0.052 0.279 0.008 0.561 0.169 0.794s0.403 0.391 0.681 0.442c0.279 0.052 0.561-0.008 0.794-0.169s0.391-0.402 0.442-0.681c0.025-0.137 0.029-0.322-0.098-0.429-0.164-0.138-0.509-0.134-0.901 0.010-0.403 0.148-0.722 0.034-0.933-0.042-0.040-0.014-0.091-0.032-0.125-0.041zM20.319 25.261c-0.093 0-0.186-0.009-0.279-0.026-0.396-0.074-0.741-0.297-0.969-0.63s-0.314-0.734-0.24-1.131c0.029-0.155 0.082-0.344 0.245-0.438 0.168-0.097 0.346-0.033 0.504 0.023 0.185 0.066 0.377 0.135 0.627 0.043 0.56-0.206 1.050-0.181 1.345 0.069 0.228 0.192 0.316 0.495 0.25 0.854-0.073 0.397-0.297 0.741-0.63 0.97-0.255 0.175-0.55 0.266-0.852 0.266z">
			</path>
			<path fill="#e5525f" style="fill: var(--color23, #e5525f)" d="M23.253 15.128c0.091 0.042 0.197 0.031 0.283-0.019 0.356-0.209 1.491-0.899 1.682-1.306 0.213-0.454-2.607 1.031-1.965 1.326z">
			</path>
			<path fill="#f2a40c" style="fill: var(--color24, #f2a40c)" d="M16 31.086c-5.682 0-10.288-0.538-10.288-1.201s4.606-1.201 10.288-1.201c5.682 0 10.288 0.538 10.288 1.201s-4.606 1.201-10.288 1.201z">
			</path>
		</symbol>
	</defs>
</svg>
